PathFileType	4	(X/Y/Z)	c:\Git\powerlifing_model_clean\simulations\HC835B\Session1\HC835B_OGW_0006\marker_experimental.trc
DataRate	CameraRate	NumFrames	NumMarkers	Units	OrigDataRate	OrigDataStartFrame	OrigNumFrames
240.000000	240.000000	5	38	mm	240.000000	108	433
Frame#	Time	RPSI			LPSI			RASI			LASI			RTH1			RTH2			RTH3			RTH4			RSK1			RSK2			RSK3			RSK4			RCAL1			RCAL2			RCAL3			RST			RPT			RTN			RFMB			RSMB			RVMB			RFMH			RSMH			RVMH			RPM			LTH1			LTH2			LTH3			LTH4			LSK1			LSK2			LSK3			LSK4			LCAL1			LCAL2			LCAL3			LFMH			LVMH			
		X1	Y1	Z1	X2	Y2	Z2	X3	Y3	Z3	X4	Y4	Z4	X5	Y5	Z5	X6	Y6	Z6	X7	Y7	Z7	X8	Y8	Z8	X9	Y9	Z9	X10	Y10	Z10	X11	Y11	Z11	X12	Y12	Z12	X13	Y13	Z13	X14	Y14	Z14	X15	Y15	Z15	X16	Y16	Z16	X17	Y17	Z17	X18	Y18	Z18	X19	Y19	Z19	X20	Y20	Z20	X21	Y21	Z21	X22	Y22	Z22	X23	Y23	Z23	X24	Y24	Z24	X25	Y25	Z25	X26	Y26	Z26	X27	Y27	Z27	X28	Y28	Z28	X29	Y29	Z29	X30	Y30	Z30	X31	Y31	Z31	X32	Y32	Z32	X33	Y33	Z33	X34	Y34	Z34	X35	Y35	Z35	X36	Y36	Z36	X37	Y37	Z37	X38	Y38	Z38	

109	0.45	473.8467407226564	1139.621826171875	-1879.580932617188	584.3964843750001	1132.594970703125	-1877.18798828125	405.0026855468751	1090.259643554688	-1675.779541015625	642.9385986328126	1093.415771484375	-1669.216796875	354.9473266601563	815.936462402344	-1786.90771484375	366.5295410156251	796.7431640625002	-1730.204833984375	370.7705993652344	733.8898315429689	-1775.822875976563	394.7533569335939	716.1245117187501	-1725.588256835938	447.1436157226564	294.9702148437501	-1931.499877929688	442.3855590820314	271.8041076660157	-1874.258666992188	455.0582580566407	237.1060943603516	-1923.339233398438	462.6000976562501	216.7331848144532	-1866.982543945313	530.5654296875001	91.89991760253908	-1994.393676757813	561.1574096679689	53.76303863525392	-1983.817626953125	498.3443908691407	54.56042861938478	-1995.387084960938	566.3820800781251	66.33282470703126	-1914.252807617188	467.8784484863282	64.0982131958008	-1938.6796875	546.4828491210939	84.70096588134767	-1859.997802734375	538.0776977539064	68.28293609619142	-1828.250732421875	489.0951538085939	91.24525451660158	-1825.057983398438	451.8562622070314	38.22050857543946	-1897.78076171875	533.4522705078126	41.90433883666993	-1774.78564453125	478.5413818359376	54.02359771728517	-1767.70556640625	424.4334716796876	31.05459785461426	-1822.280395507813	483.2037353515626	40.2784652709961	-1708.52197265625	739.0539550781251	827.5546875000002	-1655.18115234375	736.6273193359376	842.8671875000002	-1596.219116210938	740.3776855468751	761.8433227539064	-1600.031372070313	721.9252319335939	776.4690551757815	-1542.932739257813	693.5627441406251	327.7883605957032	-1623.418212890625	706.8755493164064	307.1550292968751	-1575.992919921875	694.0664062500001	273.5254516601563	-1610.284545898438	691.8175659179689	254.9369201660157	-1555.49658203125	621.6700439453126	136.7084350585938	-1661.592407226563	647.1134033203126	96.27297973632815	-1669.592407226563	590.4308471679689	101.1710662841797	-1655.008422851563	628.0024414062501	82.92324829101564	-1438.675903320313	717.9509277343751	48.02490997314455	-1495.108154296875	
110	0.4541666666666667	474.2829895019532	1138.739624023438	-1873.27587890625	584.7185058593751	1131.530395507813	-1870.713745117188	404.6594543457032	1089.225219726563	-1669.667236328125	642.9331665039064	1091.575561523438	-1662.55908203125	354.9378967285157	815.362487792969	-1782.028198242188	366.4329833984376	795.6972656250002	-1725.63037109375	370.6986083984376	733.4194335937501	-1771.366088867188	394.7597656250001	715.1898193359376	-1721.349243164063	447.3468017578126	295.1899414062501	-1929.911743164063	442.5881347656251	271.6243286132813	-1872.892578125	455.3107299804689	237.3970184326172	-1922.097534179688	462.7693176269532	216.4759216308594	-1866.008178710938	530.8186035156251	92.16395568847658	-1994.044677734375	561.4266357421876	54.02378463745119	-1983.542236328125	498.5473632812501	54.84396743774415	-1995.215942382813	566.5721435546876	66.41115570068361	-1913.97412109375	468.048553466797	64.27778625488283	-1938.473876953125	546.6334228515626	84.62265014648439	-1859.68701171875	538.1701660156251	68.15965270996095	-1827.978881835938	489.1833801269532	91.09929656982423	-1824.798706054688	451.9698181152345	38.32394790649415	-1897.689453125	533.3826293945314	41.80173492431641	-1774.579223632813	478.6417236328126	53.81010818481447	-1767.655151367188	424.3992309570314	31.04643630981446	-1822.291381835938	483.0679626464845	39.89633560180665	-1708.284545898438	737.9231567382814	826.2637329101565	-1648.308715820313	735.4050292968751	841.647644042969	-1589.318969726563	738.9542236328126	760.6115722656251	-1593.216674804688	720.3648071289064	775.1320800781252	-1536.194091796875	693.4666748046876	324.3193664550782	-1609.043701171875	706.7615966796876	305.0966186523438	-1561.021728515625	692.9317016601564	269.6896972656251	-1593.539672851563	691.6411743164064	253.4516754150391	-1539.092041015625	622.1019287109376	131.9603271484375	-1641.761474609375	647.6469726562501	90.97681427001955	-1648.480590820313	590.9122314453126	96.30418395996097	-1634.158325195313	628.2825927734376	84.49312591552736	-1417.331787109375	718.3028564453126	48.11546325683595	-1472.594970703125	
111	0.4583333333333333	474.7357177734376	1137.860961914063	-1866.908081054688	585.1339721679689	1130.313110351563	-1864.096923828125	404.3150634765626	1088.025390625	-1663.625732421875	643.0073242187501	1089.61474609375	-1655.862670898438	354.8152160644532	814.6726684570315	-1777.30859375	366.3407592773438	794.7944946289065	-1720.83935546875	370.7662658691407	732.5498657226564	-1767.134887695313	394.8315734863282	714.3886718750001	-1716.988525390625	447.4930725097657	295.2829589843751	-1928.46484375	442.7674865722657	271.4293823242188	-1871.580810546875	455.5116271972657	237.545639038086	-1920.921264648438	463.0053100585939	216.4537506103516	-1864.854125976563	531.0900878906251	92.48330688476564	-1993.681762695313	561.6383666992189	54.28591537475587	-1983.283935546875	498.804656982422	55.27530670166017	-1995.043701171875	566.7651977539064	66.44093322753908	-1913.701171875	468.222137451172	64.44995117187501	-1938.28369140625	546.6018676757814	84.4323196411133	-1859.14501953125	538.2160644531251	67.99861145019533	-1827.723022460938	489.269744873047	91.02342987060548	-1824.532348632813	452.1383361816407	38.42710876464844	-1897.590087890625	533.3116455078126	41.6879005432129	-1774.35693359375	478.5825195312501	53.61364364624025	-1767.500366210938	424.4127502441407	31.01456832885743	-1822.312377929688	483.0332946777345	39.4763412475586	-1708.185546875	736.8354492187501	824.9554443359377	-1641.546875	733.9838867187501	840.1919555664065	-1582.533813476563	737.5089111328126	759.1093750000001	-1586.574829101563	718.8151855468751	773.6568603515627	-1529.607666015625	693.3623046875001	320.9875183105469	-1594.744262695313	706.2684936523439	303.2451782226563	-1546.070922851563	693.2861328125001	266.7793884277344	-1577.668579101563	691.4855346679689	252.196273803711	-1522.757202148438	622.3450927734376	127.2206420898438	-1621.874267578125	648.2790527343751	86.07898712158205	-1627.336181640625	591.4881591796876	91.71219635009767	-1613.355712890625	628.3938598632814	86.44642639160158	-1396.193237304688	718.6931152343751	48.6737403869629	-1450.18310546875	
112	0.4625	475.1938781738282	1136.966674804688	-1860.553833007813	585.4583129882814	1129.161865234375	-1857.567626953125	404.0079650878907	1086.7646484375	-1657.62158203125	643.0480346679689	1087.64501953125	-1649.15673828125	354.7166748046876	813.950866699219	-1772.452026367188	366.2452697753907	793.8733520507815	-1716.130859375	370.7451782226563	731.8549194335939	-1762.621948242188	394.8518066406251	713.5227050781251	-1712.547607421875	447.7041320800782	295.5189819335938	-1926.87060546875	443.0043334960939	271.3509216308594	-1870.108520507813	455.6797485351564	237.5532989501954	-1919.807495117188	463.194305419922	216.1961517333985	-1863.83984375	531.3474121093751	92.8590774536133	-1993.360473632813	561.8564453125001	54.54050827026369	-1983.039794921875	499.0205383300782	55.64430236816408	-1994.848022460938	566.9862060546876	66.55122375488283	-1913.368408203125	468.4139404296876	64.64517974853517	-1938.098876953125	546.8750610351564	84.34631347656251	-1858.903198242188	538.6097412109376	67.89785003662111	-1827.71142578125	489.3125915527345	90.94051361083986	-1824.28173828125	452.2649230957032	38.52092361450196	-1897.510864257813	533.2330932617189	41.56757736206055	-1774.145874023438	478.506072998047	53.45241928100587	-1767.313598632813	424.3789978027345	30.99680709838868	-1822.321044921875	482.7929077148439	39.02727508544923	-1707.853759765625	735.7084350585939	823.4893188476565	-1634.9208984375	732.6564941406251	838.530456542969	-1575.900512695313	735.9772338867189	757.4752807617189	-1580.132446289063	717.1236572265626	771.857116699219	-1523.038696289063	694.1383666992189	318.3075561523438	-1580.698120117188	705.9386596679689	301.4960021972657	-1531.22265625	692.8659057617189	264.0953979492188	-1561.749877929688	691.0581665039064	250.9700012207032	-1506.3115234375	623.3778076171876	122.3775329589844	-1602.253662109375	648.8811035156251	81.44588470458986	-1606.163452148438	592.0227050781251	87.37584686279298	-1592.420654296875	628.6535034179689	89.08679199218751	-1374.766723632813	719.0249633789064	49.6532554626465	-1427.860961914063	
113	0.4666666666666667	475.6451416015626	1136.034545898438	-1854.124145507813	585.8978881835939	1127.836181640625	-1850.81787109375	403.7273864746095	1085.482055664063	-1651.465087890625	643.1412353515626	1085.565551757813	-1642.441040039063	354.5787048339844	813.2542114257815	-1767.527221679688	366.0665283203126	792.870788574219	-1711.409545898438	370.7387084960938	731.1788940429689	-1758.172607421875	394.8074645996095	712.4965209960939	-1708.242553710938	447.9315185546876	295.7052917480469	-1925.385620117188	443.1430969238282	271.0456542968751	-1868.771362304688	455.9357299804689	237.7512969970704	-1918.577270507813	463.3523864746095	215.8515167236329	-1862.811767578125	531.4164428710939	93.35862731933595	-1993.0107421875	562.0874023437501	54.84522628784181	-1982.7880859375	499.2684936523439	55.99086380004884	-1994.640380859375	567.1769409179689	66.63742065429689	-1913.054321289063	468.6280517578126	64.79032135009767	-1937.890747070313	547.0330810546876	84.35150146484376	-1858.589477539063	538.7868041992189	67.70521545410158	-1827.486328125	489.3965454101564	90.81009674072267	-1824.009765625	452.4342041015626	38.68724060058594	-1897.369384765625	533.1599121093751	41.47833633422852	-1773.972045898438	478.445526123047	53.22783279418947	-1767.139892578125	424.3658142089845	30.98046302795411	-1822.3408203125	482.6664428710939	38.60417938232423	-1707.672973632813	734.4671630859376	821.820983886719	-1628.463256835938	731.3067016601564	836.7634277343752	-1569.456787109375	734.4130859375001	755.6751098632814	-1573.870361328125	715.4827880859376	769.9483642578127	-1516.77685546875	694.1714477539064	315.2826232910157	-1566.530395507813	705.6600341796876	299.9346618652344	-1516.520141601563	692.8473510742189	261.5301208496094	-1546.000122070313	690.8466796875001	250.1806182861329	-1490.1689453125	624.6277465820314	118.2436981201172	-1582.32421875	649.5587768554689	77.18182373046876	-1584.930786132813	592.5491943359376	83.37100219726564	-1571.502807617188	628.8132934570314	91.63909912109376	-1353.959106445313	719.3294067382814	50.93332672119142	-1405.645141601563	
